<mxfile host="app.diagrams.net" modified="2022-05-04T08:35:25.584Z" agent="5.0 (Windows NT 10.0; Win64; x64) AppleWebKit/537.36 (KHTML, like Gecko) Chrome/101.0.4951.41 Safari/537.36 Edg/101.0.1210.32" etag="bRI69u_JFiyPXW4MGNLJ" version="17.5.0" type="github">
  <diagram id="C5RBs43oDa-KdzZeNtuy" name="Page-1">
    <mxGraphModel dx="1220" dy="732" grid="0" gridSize="10" guides="1" tooltips="1" connect="1" arrows="1" fold="1" page="1" pageScale="1" pageWidth="827" pageHeight="1169" background="none" math="0" shadow="0">
      <root>
        <mxCell id="WIyWlLk6GJQsqaUBKTNV-0" />
        <mxCell id="WIyWlLk6GJQsqaUBKTNV-1" parent="WIyWlLk6GJQsqaUBKTNV-0" />
        <mxCell id="DbkgYi3-6XnPLpAuG7J6-19" style="edgeStyle=elbowEdgeStyle;rounded=0;orthogonalLoop=1;jettySize=auto;elbow=vertical;html=1;entryX=0.5;entryY=0;entryDx=0;entryDy=0;exitX=0.5;exitY=1;exitDx=0;exitDy=0;" edge="1" parent="WIyWlLk6GJQsqaUBKTNV-1" source="DbkgYi3-6XnPLpAuG7J6-38" target="DbkgYi3-6XnPLpAuG7J6-1">
          <mxGeometry relative="1" as="geometry">
            <mxPoint x="359" y="180" as="sourcePoint" />
          </mxGeometry>
        </mxCell>
        <mxCell id="DbkgYi3-6XnPLpAuG7J6-20" style="edgeStyle=elbowEdgeStyle;rounded=0;orthogonalLoop=1;jettySize=auto;elbow=vertical;html=1;entryX=0.5;entryY=0;entryDx=0;entryDy=0;" edge="1" parent="WIyWlLk6GJQsqaUBKTNV-1" source="DbkgYi3-6XnPLpAuG7J6-1" target="DbkgYi3-6XnPLpAuG7J6-2">
          <mxGeometry relative="1" as="geometry" />
        </mxCell>
        <mxCell id="DbkgYi3-6XnPLpAuG7J6-1" value="输入用户名、密码，选择角色" style="rounded=0;whiteSpace=wrap;html=1;" vertex="1" parent="WIyWlLk6GJQsqaUBKTNV-1">
          <mxGeometry x="299" y="236" width="120" height="60" as="geometry" />
        </mxCell>
        <mxCell id="DbkgYi3-6XnPLpAuG7J6-11" style="edgeStyle=orthogonalEdgeStyle;rounded=0;orthogonalLoop=1;jettySize=auto;html=1;entryX=1;entryY=0.5;entryDx=0;entryDy=0;" edge="1" parent="WIyWlLk6GJQsqaUBKTNV-1" source="DbkgYi3-6XnPLpAuG7J6-2" target="DbkgYi3-6XnPLpAuG7J6-38">
          <mxGeometry relative="1" as="geometry">
            <mxPoint x="409" y="153" as="targetPoint" />
            <Array as="points">
              <mxPoint x="489" y="376" />
              <mxPoint x="489" y="162" />
              <mxPoint x="409" y="162" />
            </Array>
          </mxGeometry>
        </mxCell>
        <mxCell id="DbkgYi3-6XnPLpAuG7J6-18" value="错误" style="edgeLabel;html=1;align=center;verticalAlign=middle;resizable=0;points=[];" vertex="1" connectable="0" parent="DbkgYi3-6XnPLpAuG7J6-11">
          <mxGeometry x="-0.9036" y="1" relative="1" as="geometry">
            <mxPoint x="21" y="1" as="offset" />
          </mxGeometry>
        </mxCell>
        <mxCell id="DbkgYi3-6XnPLpAuG7J6-14" style="rounded=0;orthogonalLoop=1;jettySize=auto;html=1;entryX=0.5;entryY=0;entryDx=0;entryDy=0;exitX=0.5;exitY=1;exitDx=0;exitDy=0;edgeStyle=elbowEdgeStyle;elbow=vertical;" edge="1" parent="WIyWlLk6GJQsqaUBKTNV-1" target="DbkgYi3-6XnPLpAuG7J6-4">
          <mxGeometry relative="1" as="geometry">
            <mxPoint x="359" y="456" as="sourcePoint" />
          </mxGeometry>
        </mxCell>
        <mxCell id="DbkgYi3-6XnPLpAuG7J6-2" value="验证账户" style="rhombus;whiteSpace=wrap;html=1;" vertex="1" parent="WIyWlLk6GJQsqaUBKTNV-1">
          <mxGeometry x="319" y="336" width="80" height="80" as="geometry" />
        </mxCell>
        <mxCell id="DbkgYi3-6XnPLpAuG7J6-3" value="个人页面" style="rounded=0;whiteSpace=wrap;html=1;" vertex="1" parent="WIyWlLk6GJQsqaUBKTNV-1">
          <mxGeometry x="107" y="506" width="180" height="60" as="geometry" />
        </mxCell>
        <mxCell id="DbkgYi3-6XnPLpAuG7J6-26" style="edgeStyle=elbowEdgeStyle;rounded=0;orthogonalLoop=1;jettySize=auto;elbow=vertical;html=1;fontSize=12;" edge="1" parent="WIyWlLk6GJQsqaUBKTNV-1" source="DbkgYi3-6XnPLpAuG7J6-4" target="DbkgYi3-6XnPLpAuG7J6-21">
          <mxGeometry relative="1" as="geometry" />
        </mxCell>
        <mxCell id="DbkgYi3-6XnPLpAuG7J6-4" value="管理页面" style="rounded=0;whiteSpace=wrap;html=1;" vertex="1" parent="WIyWlLk6GJQsqaUBKTNV-1">
          <mxGeometry x="369" y="496" width="310" height="60" as="geometry" />
        </mxCell>
        <mxCell id="DbkgYi3-6XnPLpAuG7J6-5" value="&lt;p style=&quot;font-size: 12px&quot;&gt;个&lt;/p&gt;&lt;p style=&quot;font-size: 12px&quot;&gt;人&lt;/p&gt;&lt;p style=&quot;font-size: 12px&quot;&gt;信&lt;/p&gt;&lt;p style=&quot;font-size: 12px&quot;&gt;息&lt;/p&gt;" style="rounded=0;html=1;labelPosition=center;verticalLabelPosition=middle;align=center;verticalAlign=middle;direction=east;flipH=1;flipV=1;fontSize=12;horizontal=1;container=0;whiteSpace=wrap;" vertex="1" parent="WIyWlLk6GJQsqaUBKTNV-1">
          <mxGeometry x="107" y="616" width="50" height="110" as="geometry" />
        </mxCell>
        <mxCell id="DbkgYi3-6XnPLpAuG7J6-6" value="&lt;p&gt;修&lt;/p&gt;&lt;p&gt;改&lt;/p&gt;&lt;p&gt;信&lt;/p&gt;&lt;p&gt;息&lt;/p&gt;" style="rounded=0;whiteSpace=wrap;html=1;" vertex="1" parent="WIyWlLk6GJQsqaUBKTNV-1">
          <mxGeometry x="172" y="616" width="50" height="110" as="geometry" />
        </mxCell>
        <mxCell id="DbkgYi3-6XnPLpAuG7J6-7" value="&lt;p&gt;修&lt;/p&gt;&lt;p&gt;改&lt;/p&gt;&lt;p&gt;密&lt;/p&gt;&lt;p&gt;码&lt;/p&gt;" style="rounded=0;whiteSpace=wrap;html=1;" vertex="1" parent="WIyWlLk6GJQsqaUBKTNV-1">
          <mxGeometry x="237" y="616" width="50" height="110" as="geometry" />
        </mxCell>
        <mxCell id="DbkgYi3-6XnPLpAuG7J6-8" value="&lt;p&gt;员&lt;/p&gt;&lt;p&gt;工&lt;/p&gt;&lt;p&gt;注&lt;/p&gt;&lt;p&gt;销&lt;/p&gt;" style="rounded=0;whiteSpace=wrap;html=1;" vertex="1" parent="WIyWlLk6GJQsqaUBKTNV-1">
          <mxGeometry x="439" y="616" width="50" height="110" as="geometry" />
        </mxCell>
        <mxCell id="DbkgYi3-6XnPLpAuG7J6-9" value="&lt;p&gt;员&lt;/p&gt;&lt;p&gt;工&lt;/p&gt;&lt;p&gt;登&lt;/p&gt;&lt;p&gt;记&lt;/p&gt;" style="rounded=0;whiteSpace=wrap;html=1;" vertex="1" parent="WIyWlLk6GJQsqaUBKTNV-1">
          <mxGeometry x="369" y="616" width="50" height="110" as="geometry" />
        </mxCell>
        <mxCell id="DbkgYi3-6XnPLpAuG7J6-15" style="rounded=0;orthogonalLoop=1;jettySize=auto;html=1;entryX=0.5;entryY=0;entryDx=0;entryDy=0;exitX=0.5;exitY=1;exitDx=0;exitDy=0;edgeStyle=elbowEdgeStyle;elbow=vertical;" edge="1" parent="WIyWlLk6GJQsqaUBKTNV-1" source="DbkgYi3-6XnPLpAuG7J6-2" target="DbkgYi3-6XnPLpAuG7J6-3">
          <mxGeometry relative="1" as="geometry">
            <mxPoint x="359" y="456" as="sourcePoint" />
            <mxPoint x="484" y="506" as="targetPoint" />
            <Array as="points">
              <mxPoint x="309" y="476" />
            </Array>
          </mxGeometry>
        </mxCell>
        <mxCell id="DbkgYi3-6XnPLpAuG7J6-16" value="正确" style="edgeLabel;html=1;align=center;verticalAlign=middle;resizable=0;points=[];" vertex="1" connectable="0" parent="DbkgYi3-6XnPLpAuG7J6-15">
          <mxGeometry x="-0.6094" y="-1" relative="1" as="geometry">
            <mxPoint as="offset" />
          </mxGeometry>
        </mxCell>
        <mxCell id="DbkgYi3-6XnPLpAuG7J6-21" value="&lt;p&gt;员&lt;/p&gt;&lt;p&gt;工&lt;/p&gt;&lt;p&gt;更&lt;/p&gt;&lt;p&gt;新&lt;/p&gt;" style="rounded=0;whiteSpace=wrap;html=1;" vertex="1" parent="WIyWlLk6GJQsqaUBKTNV-1">
          <mxGeometry x="499" y="616" width="50" height="110" as="geometry" />
        </mxCell>
        <mxCell id="DbkgYi3-6XnPLpAuG7J6-22" value="&lt;p&gt;员&lt;/p&gt;&lt;p&gt;工&lt;/p&gt;&lt;p&gt;查&lt;/p&gt;&lt;p&gt;询&lt;/p&gt;" style="rounded=0;whiteSpace=wrap;html=1;" vertex="1" parent="WIyWlLk6GJQsqaUBKTNV-1">
          <mxGeometry x="569" y="616" width="50" height="110" as="geometry" />
        </mxCell>
        <mxCell id="DbkgYi3-6XnPLpAuG7J6-23" value="&lt;p&gt;员&lt;/p&gt;&lt;p&gt;工&lt;/p&gt;&lt;p&gt;统&amp;nbsp;&lt;/p&gt;&lt;p&gt;计&lt;/p&gt;" style="rounded=0;whiteSpace=wrap;html=1;" vertex="1" parent="WIyWlLk6GJQsqaUBKTNV-1">
          <mxGeometry x="629" y="616" width="50" height="110" as="geometry" />
        </mxCell>
        <mxCell id="DbkgYi3-6XnPLpAuG7J6-25" style="edgeStyle=elbowEdgeStyle;rounded=0;orthogonalLoop=1;jettySize=auto;elbow=vertical;html=1;exitX=0.5;exitY=1;exitDx=0;exitDy=0;fontSize=12;entryX=0.5;entryY=0;entryDx=0;entryDy=0;" edge="1" parent="WIyWlLk6GJQsqaUBKTNV-1" source="DbkgYi3-6XnPLpAuG7J6-3" target="DbkgYi3-6XnPLpAuG7J6-6">
          <mxGeometry relative="1" as="geometry" />
        </mxCell>
        <mxCell id="DbkgYi3-6XnPLpAuG7J6-27" style="edgeStyle=elbowEdgeStyle;rounded=0;orthogonalLoop=1;jettySize=auto;elbow=vertical;html=1;exitX=0.5;exitY=1;exitDx=0;exitDy=0;fontSize=12;entryX=0.5;entryY=0;entryDx=0;entryDy=0;" edge="1" parent="WIyWlLk6GJQsqaUBKTNV-1" source="DbkgYi3-6XnPLpAuG7J6-3" target="DbkgYi3-6XnPLpAuG7J6-7">
          <mxGeometry relative="1" as="geometry">
            <mxPoint x="249" y="566" as="sourcePoint" />
            <mxPoint x="249" y="626" as="targetPoint" />
            <Array as="points">
              <mxPoint x="229" y="591" />
            </Array>
          </mxGeometry>
        </mxCell>
        <mxCell id="DbkgYi3-6XnPLpAuG7J6-28" style="edgeStyle=elbowEdgeStyle;rounded=0;orthogonalLoop=1;jettySize=auto;elbow=vertical;html=1;exitX=0.5;exitY=1;exitDx=0;exitDy=0;fontSize=12;entryX=0.5;entryY=0;entryDx=0;entryDy=0;" edge="1" parent="WIyWlLk6GJQsqaUBKTNV-1" source="DbkgYi3-6XnPLpAuG7J6-3" target="DbkgYi3-6XnPLpAuG7J6-5">
          <mxGeometry relative="1" as="geometry">
            <mxPoint x="249" y="566" as="sourcePoint" />
            <mxPoint x="249" y="626" as="targetPoint" />
          </mxGeometry>
        </mxCell>
        <mxCell id="DbkgYi3-6XnPLpAuG7J6-30" style="edgeStyle=elbowEdgeStyle;rounded=0;orthogonalLoop=1;jettySize=auto;elbow=vertical;html=1;fontSize=12;entryX=0.5;entryY=0;entryDx=0;entryDy=0;" edge="1" parent="WIyWlLk6GJQsqaUBKTNV-1" target="DbkgYi3-6XnPLpAuG7J6-23">
          <mxGeometry relative="1" as="geometry">
            <mxPoint x="524" y="557" as="sourcePoint" />
            <mxPoint x="534" y="626" as="targetPoint" />
            <Array as="points">
              <mxPoint x="543" y="586" />
              <mxPoint x="543" y="585" />
              <mxPoint x="509" y="579" />
              <mxPoint x="524" y="571" />
              <mxPoint x="523" y="576" />
              <mxPoint x="524" y="568" />
              <mxPoint x="525" y="568" />
              <mxPoint x="524" y="562" />
              <mxPoint x="531" y="572" />
            </Array>
          </mxGeometry>
        </mxCell>
        <mxCell id="DbkgYi3-6XnPLpAuG7J6-31" style="edgeStyle=elbowEdgeStyle;rounded=0;orthogonalLoop=1;jettySize=auto;elbow=vertical;html=1;fontSize=12;entryX=0.5;entryY=0;entryDx=0;entryDy=0;exitX=0.5;exitY=1;exitDx=0;exitDy=0;" edge="1" parent="WIyWlLk6GJQsqaUBKTNV-1" source="DbkgYi3-6XnPLpAuG7J6-4" target="DbkgYi3-6XnPLpAuG7J6-22">
          <mxGeometry relative="1" as="geometry">
            <mxPoint x="535" y="566" as="sourcePoint" />
            <mxPoint x="664" y="626" as="targetPoint" />
            <Array as="points">
              <mxPoint x="535" y="586" />
              <mxPoint x="555" y="584" />
              <mxPoint x="557" y="588" />
              <mxPoint x="529" y="581" />
              <mxPoint x="531" y="565" />
            </Array>
          </mxGeometry>
        </mxCell>
        <mxCell id="DbkgYi3-6XnPLpAuG7J6-33" style="edgeStyle=elbowEdgeStyle;rounded=0;orthogonalLoop=1;jettySize=auto;elbow=vertical;html=1;fontSize=12;entryX=0.5;entryY=0;entryDx=0;entryDy=0;" edge="1" parent="WIyWlLk6GJQsqaUBKTNV-1" target="DbkgYi3-6XnPLpAuG7J6-9">
          <mxGeometry relative="1" as="geometry">
            <mxPoint x="524" y="558" as="sourcePoint" />
            <mxPoint x="474" y="626" as="targetPoint" />
            <Array as="points">
              <mxPoint x="413" y="586" />
              <mxPoint x="411" y="585" />
              <mxPoint x="535" y="563" />
              <mxPoint x="490" y="586" />
              <mxPoint x="481" y="584" />
              <mxPoint x="485" y="587" />
              <mxPoint x="453" y="585" />
              <mxPoint x="439" y="587" />
              <mxPoint x="449" y="584" />
              <mxPoint x="501" y="587" />
              <mxPoint x="507" y="596" />
            </Array>
          </mxGeometry>
        </mxCell>
        <mxCell id="DbkgYi3-6XnPLpAuG7J6-34" style="edgeStyle=orthogonalEdgeStyle;rounded=0;orthogonalLoop=1;jettySize=auto;elbow=vertical;html=1;fontSize=12;entryX=0;entryY=0.5;entryDx=0;entryDy=0;" edge="1" parent="WIyWlLk6GJQsqaUBKTNV-1" target="DbkgYi3-6XnPLpAuG7J6-37">
          <mxGeometry relative="1" as="geometry">
            <mxPoint x="197" y="566" as="sourcePoint" />
            <mxPoint x="246" y="805" as="targetPoint" />
            <Array as="points">
              <mxPoint x="197" y="591" />
              <mxPoint x="301" y="591" />
              <mxPoint x="301" y="835" />
              <mxPoint x="319" y="835" />
            </Array>
          </mxGeometry>
        </mxCell>
        <mxCell id="DbkgYi3-6XnPLpAuG7J6-35" style="edgeStyle=elbowEdgeStyle;rounded=0;orthogonalLoop=1;jettySize=auto;elbow=vertical;html=1;fontSize=12;entryX=0.5;entryY=0;entryDx=0;entryDy=0;" edge="1" parent="WIyWlLk6GJQsqaUBKTNV-1" target="DbkgYi3-6XnPLpAuG7J6-8">
          <mxGeometry relative="1" as="geometry">
            <mxPoint x="524" y="559" as="sourcePoint" />
            <mxPoint x="404" y="626" as="targetPoint" />
            <Array as="points">
              <mxPoint x="522" y="586" />
              <mxPoint x="500" y="596" />
              <mxPoint x="491" y="594" />
              <mxPoint x="495" y="597" />
              <mxPoint x="463" y="595" />
              <mxPoint x="449" y="597" />
              <mxPoint x="459" y="594" />
              <mxPoint x="511" y="597" />
              <mxPoint x="517" y="606" />
            </Array>
          </mxGeometry>
        </mxCell>
        <mxCell id="DbkgYi3-6XnPLpAuG7J6-36" style="edgeStyle=elbowEdgeStyle;rounded=0;orthogonalLoop=1;jettySize=auto;elbow=vertical;html=1;fontSize=12;entryX=0.5;entryY=0;entryDx=0;entryDy=0;" edge="1" parent="WIyWlLk6GJQsqaUBKTNV-1" target="DbkgYi3-6XnPLpAuG7J6-37">
          <mxGeometry relative="1" as="geometry">
            <mxPoint x="523" y="551" as="sourcePoint" />
            <mxPoint x="336" y="781" as="targetPoint" />
            <Array as="points">
              <mxPoint x="422" y="586" />
              <mxPoint x="420" y="585" />
              <mxPoint x="544" y="563" />
              <mxPoint x="499" y="586" />
              <mxPoint x="490" y="584" />
              <mxPoint x="494" y="587" />
              <mxPoint x="462" y="585" />
              <mxPoint x="448" y="587" />
              <mxPoint x="458" y="584" />
              <mxPoint x="510" y="587" />
              <mxPoint x="516" y="596" />
            </Array>
          </mxGeometry>
        </mxCell>
        <mxCell id="DbkgYi3-6XnPLpAuG7J6-37" value="退出" style="ellipse;whiteSpace=wrap;html=1;fontSize=12;" vertex="1" parent="WIyWlLk6GJQsqaUBKTNV-1">
          <mxGeometry x="319" y="818" width="70" height="35" as="geometry" />
        </mxCell>
        <mxCell id="DbkgYi3-6XnPLpAuG7J6-38" value="登录页面" style="ellipse;whiteSpace=wrap;html=1;fontSize=12;" vertex="1" parent="WIyWlLk6GJQsqaUBKTNV-1">
          <mxGeometry x="324" y="144" width="70" height="35" as="geometry" />
        </mxCell>
      </root>
    </mxGraphModel>
  </diagram>
</mxfile>
